<?xml version="1.0" encoding="UTF-8" ?><!DOCTYPE svg PUBLIC "-//W3C//DTD SVG 1.1//EN" "http://www.w3.org/Graphics/SVG/1.1/DTD/svg11.dtd"><svg width="121" height="60" viewBox="0 0 121 60" xmlns="http://www.w3.org/2000/svg" xmlns:xlink="http://www.w3.org/1999/xlink"><svg width="10" height="16" viewBox="-1 -1 10 16" id="facebook" y="44" xmlns="http://www.w3.org/2000/svg"><path fill="#626262" d="M3.05 0H8v2.19c-.74.07-2.23.2-2.97.26-.04.54-.11 1.61-.15 2.15l2.74.04.02 1.97c-.67.05-2.02.17-2.7.22V14H1.75c-.04-2.08-.04-4.16-.21-6.23C1.16 7.29.39 6.33 0 5.84V4.67l1.2-.08C1.77 3.04 2.32 1.48 3.05 0z"/></svg><svg width="16" height="16" viewBox="-1 -1 17 17" id="instagram" x="10" y="44" xmlns="http://www.w3.org/2000/svg"><path fill="#626262" d="M1.86 0h13.03l.1.01.01.1v14.78l-.01.1-.1.01H.25l-.07-.01-.18-.07V1.79C1.2 1.8 1.82 1.21 1.86 0m9.31 2.18c-.52 1.63.04 2.18 1.66 1.64.52-1.63-.04-2.18-1.66-1.64M6.32 5.14c-3.07 1.46-.56 6.38 2.42 4.68 2.96-1.49.51-6.23-2.42-4.68m-4.84.83c-.04 2.47.1 4.94.14 7.41 3.93.18 7.86.18 11.79-.03.01-2.46.15-4.92.1-7.38-.43.01-1.28.02-1.71.03-.19 2.36-.87 5.44-3.8 5.61-3.32.55-4.79-2.87-4.8-5.61-.43-.01-1.29-.02-1.72-.03z"/></svg><svg width="121" height="25" viewBox="-1 -1 121 25" id="logo" xmlns="http://www.w3.org/2000/svg"><path d="M116.68 1.38c.58-.16 1.74-.47 2.32-.63v.6c-2.96 2.81-.45 6.4-.37 9.71.19 3.27-.51 7.16-3.44 9.1-2.14 1.55-4.93.28-7.31.26-.04.65-.14 1.94-.19 2.58h-1.4c.2-1.45.4-2.89.52-4.35-1.6-4.76-2.65-10.78 1.03-14.86 1.95-2.42 5.19-1.64 7.81-1.15.25-.32.77-.95 1.03-1.26m-6.86 3.44c-3.38 2.83-2.31 7.81-1.74 11.62 2.56-3.75 4.54-7.84 6.63-11.85-1.62-.21-3.5-1.11-4.89.23m-.35 13.45c1.85.82 3.8.55 5.66-.04 1.42-3.62 1.79-7.53.89-11.33-2.48 3.62-4.39 7.57-6.55 11.37zM.77 1.45c3.31 1.62 3.84 5.69 5.84 8.46 3.25-1.55 2.86-7.08 6.63-8.45.2 6.52.05 13.04.09 19.55-.53 0-1.61-.02-2.15-.03.02-4.44.08-8.88-.12-13.32-1.45 2.28-2.92 4.54-4.18 6.92-1.25-2.31-2.72-4.5-3.95-6.82-.17 4.4-.14 8.81-.11 13.22l-2.15.04C.71 14.49.55 7.97.77 1.45zM23.04 2.03c3.14-.04 6.28-.14 9.42.06.86 2.69-2.22 1.7-3.79 2.07.01 4.88.01 9.76 0 14.64 1.7.32 4.15-.27 4.58 2.02-3.48.23-6.96.2-10.45.18 0-.5-.01-1.5-.01-2 .94 0 2.8 0 3.74-.01V4.04c-.89-.03-2.66-.08-3.55-.1.02-.48.05-1.44.06-1.91zM42.96 1.62c.59.27 1.77.79 2.36 1.05 2.73 4.15 4.76 8.73 7.45 12.91.06-4.53.02-9.05.03-13.58h2.14c-.04 6.5.11 13.01-.09 19.51-1.09-.65-2.22-1.35-2.77-2.55-2.41-4.06-4.33-8.4-6.97-12.32-.1 4.78-.02 9.57-.05 14.36h-2.13c.02-6.46-.03-12.92.03-19.38zM64.99 2.04c3.15-.05 6.3-.16 9.44.05.94 2.69-2.19 1.7-3.76 2.07.01 4.87.01 9.75 0 14.62 1.71.33 4.07-.18 4.67 1.99-3.5.28-7.02.26-10.53.24v-2.02c.93 0 2.78.01 3.71.01.01-4.99.01-9.98.01-14.97-.88-.02-2.62-.05-3.5-.07l-.04-1.92zM84.76 1.45c3.46 1.87 4.2 6.18 6.25 9.26 2.08-3.05 2.74-7.42 6.23-9.25.21 6.51.05 13.03.09 19.55-.53-.01-1.61-.02-2.15-.02.02-4.48.07-8.97-.11-13.45-1.35 2.39-2.82 4.7-4.46 6.89-1.21-2.26-2.39-4.53-3.66-6.75-.22 4.43-.14 8.87-.13 13.31-.54 0-1.62.01-2.15.02.04-6.52-.12-13.04.09-19.56z"/></svg><svg width="34" height="19" viewBox="-1 -1 34 19" id="send" y="25" xmlns="http://www.w3.org/2000/svg"><path fill="#0e0e0d" opacity=".49" d="M0 0h1.74C11.75 3.05 22.01 5.22 32 8.34v.39C21.95 11.69 11.74 14.02 1.7 17H0v-.45c2.58-2.79 5.36-5.38 8.04-8.06C5.34 5.82 2.56 3.23 0 .43V0m3.1 1.84c1.92 2.14 3.99 4.14 6.05 6.14 5.68-.14 11.39.41 17.04-.32C18.42 5.99 10.88 3.4 3.1 1.84m6.06 7.18c-2.06 2-4.13 4-6.05 6.13 7.73-1.5 15.18-4.17 22.9-5.72-5.55-.94-11.24-.2-16.85-.41z"/></svg><svg width="26" height="15" viewBox="-1 -1 20 15" id="twitter" x="34" y="25" xmlns="http://www.w3.org/2000/svg"><path fill="#626262" d="M10.76 0h2.37c1.45.49 2.88 1.02 4.32 1.54-.98 2.33-1.7 4.78-2.86 7.04-1.48 2.57-4.41 3.75-7.15 4.42H3.99c-.99-.3-2.98-.89-3.98-1.18 1.72-.34 3.44-.68 5.16-1.01L2.62 8.92c-.48-1.02-.96-2.04-1.45-3.05C1.07 4.12.94 2.37.84.62c2.22 1.59 4.69 2.77 7.31 3.52.8-1.42 1.66-2.81 2.61-4.14z"/></svg></svg>