<?xml version="1.0" encoding="UTF-8" ?>
<!DOCTYPE svg PUBLIC "-//W3C//DTD SVG 1.1//EN" "http://www.w3.org/Graphics/SVG/1.1/DTD/svg11.dtd">
<svg width="8pt" height="14pt" viewBox="0 0 8 14" version="1.1" xmlns="http://www.w3.org/2000/svg">
<g id="#626262ff">
<path fill="#626262" opacity="1.00" d=" M 3.05 0.00 L 8.00 0.00 L 8.00 2.19 C 7.26 2.26 5.77 2.39 5.03 2.45 C 4.99 2.99 4.92 4.06 4.88 4.60 C 5.57 4.61 6.94 4.63 7.62 4.64 L 7.64 6.61 C 6.97 6.66 5.62 6.78 4.94 6.83 C 4.94 9.22 4.94 11.61 4.94 14.00 L 1.75 14.00 C 1.71 11.92 1.71 9.84 1.54 7.77 C 1.16 7.29 0.39 6.33 0.00 5.84 L 0.00 4.67 C 0.30 4.65 0.90 4.61 1.20 4.59 C 1.77 3.04 2.32 1.48 3.05 0.00 Z" />
</g>
</svg>
