<?xml version="1.0" encoding="UTF-8" ?>
<!DOCTYPE svg PUBLIC "-//W3C//DTD SVG 1.1//EN" "http://www.w3.org/Graphics/SVG/1.1/DTD/svg11.dtd">
<svg width="14pt" height="14pt" viewBox="0 0 15 15" version="1.1" xmlns="http://www.w3.org/2000/svg">
<g id="#626262ff">
<path fill="#626262" opacity="1.00" d=" M 1.86 0.00 L 14.89 0.00 L 14.99 0.01 L 15.00 0.11 L 15.00 14.89 L 14.99 14.99 L 14.89 15.00 L 0.25 15.00 L 0.18 14.99 L 0.00 14.92 L 0.00 1.79 C 1.20 1.80 1.82 1.21 1.86 0.00 M 11.17 2.18 C 10.65 3.81 11.21 4.36 12.83 3.82 C 13.35 2.19 12.79 1.64 11.17 2.18 M 6.32 5.14 C 3.25 6.60 5.76 11.52 8.74 9.82 C 11.70 8.33 9.25 3.59 6.32 5.14 M 1.48 5.97 C 1.44 8.44 1.58 10.91 1.62 13.38 C 5.55 13.56 9.48 13.56 13.41 13.35 C 13.42 10.89 13.56 8.43 13.51 5.97 C 13.08 5.98 12.23 5.99 11.80 6.00 C 11.61 8.36 10.93 11.44 8.00 11.61 C 4.68 12.16 3.21 8.74 3.20 6.00 C 2.77 5.99 1.91 5.98 1.48 5.97 Z" />
</g>
</svg>
