<?xml version="1.0" encoding="UTF-8" ?>
<!DOCTYPE svg PUBLIC "-//W3C//DTD SVG 1.1//EN" "http://www.w3.org/Graphics/SVG/1.1/DTD/svg11.dtd">
<svg width="119pt" height="23pt" viewBox="0 0 119 23" version="1.1" xmlns="http://www.w3.org/2000/svg">
<g id="#000000fc">
<path fill="#000000" opacity="1.00" d=" M 116.68 1.38 C 117.26 1.22 118.42 0.91 119.00 0.75 L 119.00 1.35 C 116.04 4.16 118.55 7.75 118.63 11.06 C 118.82 14.33 118.12 18.22 115.19 20.16 C 113.05 21.71 110.26 20.44 107.88 20.42 C 107.84 21.07 107.74 22.36 107.69 23.00 L 106.29 23.00 C 106.49 21.55 106.69 20.11 106.81 18.65 C 105.21 13.89 104.16 7.87 107.84 3.79 C 109.79 1.37 113.03 2.15 115.65 2.64 C 115.90 2.32 116.42 1.69 116.68 1.38 M 109.82 4.82 C 106.44 7.65 107.51 12.63 108.08 16.44 C 110.64 12.69 112.62 8.60 114.71 4.59 C 113.09 4.38 111.21 3.48 109.82 4.82 M 109.47 18.27 C 111.32 19.09 113.27 18.82 115.13 18.23 C 116.55 14.61 116.92 10.70 116.02 6.90 C 113.54 10.52 111.63 14.47 109.47 18.27 Z" />
<path fill="#000000" opacity="1.00" d=" M 0.77 1.45 C 4.08 3.07 4.61 7.14 6.61 9.91 C 9.86 8.36 9.47 2.83 13.24 1.46 C 13.44 7.98 13.29 14.50 13.33 21.01 C 12.80 21.01 11.72 20.99 11.18 20.98 C 11.20 16.54 11.26 12.10 11.06 7.66 C 9.61 9.94 8.14 12.20 6.88 14.58 C 5.63 12.27 4.16 10.08 2.93 7.76 C 2.76 12.16 2.79 16.57 2.82 20.98 C 2.28 20.99 1.21 21.01 0.67 21.02 C 0.71 14.49 0.55 7.97 0.77 1.45 Z" />
<path fill="#000000" opacity="1.00" d=" M 23.04 2.03 C 26.18 1.99 29.32 1.89 32.46 2.09 C 33.32 4.78 30.24 3.79 28.67 4.16 C 28.68 9.04 28.68 13.92 28.67 18.80 C 30.37 19.12 32.82 18.53 33.25 20.82 C 29.77 21.05 26.29 21.02 22.80 21.00 C 22.80 20.50 22.79 19.50 22.79 19.00 C 23.73 19.00 25.59 19.00 26.53 18.99 C 26.53 14.01 26.53 9.02 26.53 4.04 C 25.64 4.01 23.87 3.96 22.98 3.94 C 23.00 3.46 23.03 2.50 23.04 2.03 Z" />
<path fill="#000000" opacity="1.00" d=" M 42.96 1.62 C 43.55 1.89 44.73 2.41 45.32 2.67 C 48.05 6.82 50.08 11.40 52.77 15.58 C 52.83 11.05 52.79 6.53 52.80 2.00 C 53.34 2.00 54.41 2.00 54.94 2.00 C 54.90 8.50 55.05 15.01 54.85 21.51 C 53.76 20.86 52.63 20.16 52.08 18.96 C 49.67 14.90 47.75 10.56 45.11 6.64 C 45.01 11.42 45.09 16.21 45.06 21.00 C 44.53 21.00 43.47 21.00 42.93 21.00 C 42.95 14.54 42.90 8.08 42.96 1.62 Z" />
<path fill="#000000" opacity="1.00" d=" M 64.99 2.04 C 68.14 1.99 71.29 1.88 74.43 2.09 C 75.37 4.78 72.24 3.79 70.67 4.16 C 70.68 9.03 70.68 13.91 70.67 18.78 C 72.38 19.11 74.74 18.60 75.34 20.77 C 71.84 21.05 68.32 21.03 64.81 21.01 C 64.81 20.50 64.81 19.49 64.81 18.99 C 65.74 18.99 67.59 19.00 68.52 19.00 C 68.53 14.01 68.53 9.02 68.53 4.03 C 67.65 4.01 65.91 3.98 65.03 3.96 C 65.02 3.48 65.00 2.52 64.99 2.04 Z" />
<path fill="#000000" opacity="1.00" d=" M 84.76 1.45 C 88.22 3.32 88.96 7.63 91.01 10.71 C 93.09 7.66 93.75 3.29 97.24 1.46 C 97.45 7.97 97.29 14.49 97.33 21.01 C 96.80 21.00 95.72 20.99 95.18 20.99 C 95.20 16.51 95.25 12.02 95.07 7.54 C 93.72 9.93 92.25 12.24 90.61 14.43 C 89.40 12.17 88.22 9.90 86.95 7.68 C 86.73 12.11 86.81 16.55 86.82 20.99 C 86.28 20.99 85.20 21.00 84.67 21.01 C 84.71 14.49 84.55 7.97 84.76 1.45 Z" />
</g>
</svg>
