<?xml version="1.0" encoding="UTF-8" ?>
<!DOCTYPE svg PUBLIC "-//W3C//DTD SVG 1.1//EN" "http://www.w3.org/Graphics/SVG/1.1/DTD/svg11.dtd">
<svg width="32pt" height="17pt" viewBox="0 0 32 17" version="1.1" xmlns="http://www.w3.org/2000/svg">
<g id="#0e0e0d7c">
<path fill="#0e0e0d" opacity="0.49" d=" M 0.00 0.00 L 1.74 0.00 C 11.75 3.05 22.01 5.22 32.00 8.34 L 32.00 8.73 C 21.95 11.69 11.74 14.02 1.70 17.00 L 0.00 17.00 L 0.00 16.55 C 2.58 13.76 5.36 11.17 8.04 8.49 C 5.34 5.82 2.56 3.23 0.00 0.43 L 0.00 0.00 M 3.10 1.84 C 5.02 3.98 7.09 5.98 9.15 7.98 C 14.83 7.84 20.54 8.39 26.19 7.66 C 18.42 5.99 10.88 3.40 3.10 1.84 M 9.16 9.02 C 7.10 11.02 5.03 13.02 3.11 15.15 C 10.84 13.65 18.29 10.98 26.01 9.43 C 20.46 8.49 14.77 9.23 9.16 9.02 Z" />
</g>
</svg>
