<?xml version="1.0" encoding="UTF-8" ?>
<!DOCTYPE svg PUBLIC "-//W3C//DTD SVG 1.1//EN" "http://www.w3.org/Graphics/SVG/1.1/DTD/svg11.dtd">
<svg width="18pt" height="13pt" viewBox="0 0 18 13" version="1.1" xmlns="http://www.w3.org/2000/svg">
<g id="#626262ff">
<path fill="#626262" opacity="1.00" d=" M 10.76 0.00 L 13.13 0.00 C 14.58 0.49 16.01 1.02 17.45 1.54 C 16.47 3.87 15.75 6.32 14.59 8.58 C 13.11 11.15 10.18 12.33 7.44 13.00 L 3.99 13.00 C 3.00 12.70 1.01 12.11 0.01 11.82 C 1.73 11.48 3.45 11.14 5.17 10.81 C 4.32 10.18 3.47 9.55 2.62 8.92 C 2.14 7.90 1.66 6.88 1.17 5.87 C 1.07 4.12 0.94 2.37 0.84 0.62 C 3.06 2.21 5.53 3.39 8.15 4.14 C 8.95 2.72 9.81 1.33 10.76 0.00 Z" />
</g>
</svg>
